<svg xmlns="http://www.w3.org/2000/svg" xmlns:xlink="http://www.w3.org/1999/xlink" width="830" height="412.49"><rect width="830" height="412.49" rx="0" ry="0" class="a"/><svg height="412.49" viewBox="0 0 83 41.249" width="830" xmlns="http://www.w3.org/2000/svg" xmlns:xlink="http://www.w3.org/1999/xlink"><style>@keyframes J{0%{transform:translateX(0)}6.9%{transform:translateX(-83px)}7.3%{transform:translateX(-249px)}7.5%{transform:translateX(-332px)}7.6%{transform:translateX(-498px)}7.7%{transform:translateX(-581px)}10.9%{transform:translateX(-664px)}11.6%{transform:translateX(-747px)}12.4%{transform:translateX(-830px)}15.8%{transform:translateX(-913px)}16.4%{transform:translateX(-996px)}22.2%{transform:translateX(-1079px)}30.7%{transform:translateX(-1162px)}30.8%{transform:translateX(-1909px)}31.8%{transform:translateX(-1992px)}31.9%{transform:translateX(-2241px)}32%{transform:translateX(-2324px)}89.8%{transform:translateX(-2407px)}90.6%{transform:translateX(-2490px)}98.1%{transform:translateX(-2573px)}98.9%{transform:translateX(-2656px)}99.9%{transform:translateX(-2739px)}to{transform:translateX(-2905px)}}.a{fill:#282d35}.c{fill:#cddc39}.d{fill:#000;white-space:pre}.e{fill:#555}.f{fill:#cddc39;white-space:pre}.g{fill:#555}.g,.h{white-space:pre}.h,.i{fill:#666}.j{fill:#ffc107;white-space:pre}.k{fill:#1e0010}.l,.m,.n,.o{fill:#c62828;white-space:pre}.m,.n,.o{fill:#8bc34a}.n,.o{fill:#1e0010}.o{fill:#f8f8f2}.p,.s,.t,.u,.v,.w{fill:#6f7783;white-space:pre}.s,.t,.u,.v,.w{fill:#00afd7}.t,.u,.v,.w{fill:#00d7d7}.u,.v,.w{fill:#5fff5f}.v,.w{fill:#00d7af}.w{fill:#00ffaf}.A,.B,.C,.x,.y,.z{fill:#00ff87;white-space:pre}.A,.B,.C,.y,.z{fill:#5fff87}.A,.B,.C,.z{fill:#87ff5f}.A,.B,.C{fill:#87ff00}.B,.C{fill:#afff00}.C{fill:#b9c0cb}.E{fill:#222}.G{fill:#444}</style><g font-family="Monaco,Consolas,Menlo,'Bitstream Vera Sans Mono','Powerline Symbols',monospace" font-size="1.67"><defs><symbol id="1"><path class="c" d="M0 0h3v2.171H0z"/><text y="1.67" class="d"></text><path class="e" d="M3.006 0h6v2.171h-6z"/><text x="3.006" y="1.67" class="f">  ~</text><text x="9.018" y="1.67" class="g"></text><text x="73.146" y="1.67" class="h"></text><path class="i" d="M74.148 0h9v2.171h-9z"/><text x="74.148" y="1.67" class="j">20:56 </text></symbol><symbol id="2"><path class="k" d="M0 0h1v2.171H0z"/><text y="1.67" class="l">❯</text><path class="k" d="M1.002 0h1v2.171h-1z"/><text x="1.002" y="1.67" class="j">❯</text><path class="k" d="M2.004 0h1v2.171h-1z"/><text x="2.004" y="1.67" class="m">❯</text><text x="3.006" y="1.67" class="n"></text></symbol><symbol id="3"><path class="k" d="M0 0h1v2.171H0z"/><text y="1.67" class="l">❯</text><path class="k" d="M1.002 0h1v2.171h-1z"/><text x="1.002" y="1.67" class="j">❯</text><path class="k" d="M2.004 0h1v2.171h-1z"/><text x="2.004" y="1.67" class="m">❯</text><text x="3.006" y="1.67" class="n"></text><text x="4.008" y="1.67" class="o">cat</text><text x="8.016" y="1.67" class="p">contact.txt</text></symbol><symbol id="4"><path class="k" d="M0 0h1v2.171H0z"/><text y="1.67" class="l">❯</text><path class="k" d="M1.002 0h1v2.171h-1z"/><text x="1.002" y="1.67" class="j">❯</text><path class="k" d="M2.004 0h1v2.171h-1z"/><text x="2.004" y="1.67" class="m">❯</text><text x="3.006" y="1.67" class="n"></text><text x="4.008" y="1.67" class="o">cat</text><text x="8.016" y="1.67" style="white-space:pre" fill="#2ee22e">contact.txt</text></symbol><symbol id="5"><text x="21.042" y="1.67" style="white-space:pre" fill="#00afff">██</text><text x="23.046" y="1.67" class="s">█</text><text x="24.048" y="1.67" class="t">██</text><text x="60.12" y="1.67" class="u">███</text></symbol><symbol id="6"><text x="20.04" y="1.67" class="s">▒</text><text x="21.042" y="1.67" class="t">▒███</text><text x="59.118" y="1.67" class="u">▒▒▒</text></symbol><symbol id="7"><text x="18.036" y="1.67" class="t">███████</text><text x="27.054" y="1.67" class="t">██</text><text x="29.058" y="1.67" class="v">█</text><text x="30.06" y="1.67" class="w">██</text><text x="33.066" y="1.67" class="w">████</text><text x="38.076" y="1.67" class="w">██</text><text x="40.08" y="1.67" class="x">███</text><text x="44.088" y="1.67" class="x">████</text><text x="49.098" y="1.67" class="y">█</text><text x="50.1" y="1.67" class="u">███████</text><text x="59.118" y="1.67" class="u">██</text><text x="61.122" y="1.67" class="z">█</text><text x="62.124" y="1.67" class="A">█</text></symbol><symbol id="8"><text x="17.034" y="1.67" class="t">███▒▒███</text><text x="26.052" y="1.67" class="v">▒</text><text x="27.054" y="1.67" class="w">▒███</text><text x="32.064" y="1.67" class="w">▒███</text><text x="37.074" y="1.67" class="x">▒▒███</text><text x="43.086" y="1.67" class="x">▒██</text><text x="46.092" y="1.67" class="y">█</text><text x="48.096" y="1.67" class="u">▒▒███▒▒███</text><text x="58.116" y="1.67" class="z">▒</text><text x="59.118" y="1.67" class="A">▒███</text></symbol><symbol id="9"><text x="16.032" y="1.67" class="t">▒███</text><text x="21.042" y="1.67" class="t">▒█</text><text x="23.046" y="1.67" class="v">█</text><text x="24.048" y="1.67" class="w">█</text><text x="27.054" y="1.67" class="w">▒███</text><text x="32.064" y="1.67" class="w">▒█</text><text x="34.068" y="1.67" class="x">██</text><text x="38.076" y="1.67" class="x">▒███</text><text x="43.086" y="1.67" class="y">▒</text><text x="44.088" y="1.67" class="u">███</text><text x="49.098" y="1.67" class="u">▒███</text><text x="54.108" y="1.67" class="u">▒</text><text x="55.11" y="1.67" class="z">▒</text><text x="56.112" y="1.67" class="A">▒</text><text x="59.118" y="1.67" class="A">▒███</text></symbol><symbol id="10"><text x="16.032" y="1.67" class="t">▒███</text><text x="21.042" y="1.67" class="w">▒███</text><text x="27.054" y="1.67" class="w">▒███</text><text x="32.064" y="1.67" class="x">▒███</text><text x="38.076" y="1.67" class="x">▒█</text><text x="40.08" y="1.67" class="y">█</text><text x="41.082" y="1.67" class="u">█</text><text x="43.086" y="1.67" class="u">▒███</text><text x="49.098" y="1.67" class="u">▒██</text><text x="52.104" y="1.67" class="z">█</text><text x="59.118" y="1.67" class="A">▒██</text><text x="62.124" y="1.67" class="B">█</text></symbol><symbol id="11"><text x="16.032" y="1.67" class="t">▒</text><text x="17.034" y="1.67" class="v">▒</text><text x="18.036" y="1.67" class="w">████████</text><text x="27.054" y="1.67" class="w">▒</text><text x="28.056" y="1.67" class="x">▒███████</text><text x="38.076" y="1.67" class="u">▒▒████████</text><text x="49.098" y="1.67" class="z">█</text><text x="50.1" y="1.67" class="A">████</text><text x="59.118" y="1.67" class="B">█████</text></symbol><symbol id="12"><text x="17.034" y="1.67" class="w">▒▒▒▒▒▒▒▒</text><text x="28.056" y="1.67" class="x">▒▒▒▒▒█</text><text x="34.068" y="1.67" class="y">█</text><text x="35.07" y="1.67" class="u">█</text><text x="39.078" y="1.67" class="u">▒▒▒▒▒▒▒</text><text x="46.092" y="1.67" class="z">▒</text><text x="48.096" y="1.67" class="A">▒▒▒▒▒</text><text x="58.116" y="1.67" class="B">▒▒▒▒▒</text></symbol><symbol id="13"><text x="28.056" y="1.67" class="x">███</text><text x="32.064" y="1.67" class="u">▒███</text></symbol><symbol id="14"><text x="27.054" y="1.67" class="x">▒</text><text x="28.056" y="1.67" class="y">▒</text><text x="29.058" y="1.67" class="u">██████</text></symbol><symbol id="15"><text x="28.056" y="1.67" class="u">▒▒▒▒▒▒</text></symbol><symbol id="16"><text y="1.67" class="C">📧</text><text x="3.006" y="1.67" class="C">dyuri@horak.hu</text></symbol><symbol id="17"><text y="1.67" class="C">🌐</text><text x="3.006" y="1.67" class="C">https://horak.hu/</text></symbol><symbol id="18"><path class="c" d="M0 0h3v2.171H0z"/><text y="1.67" class="d"></text><path class="e" d="M3.006 0h6v2.171h-6z"/><text x="3.006" y="1.67" class="f">  ~</text><text x="9.018" y="1.67" class="g"></text><text x="61.122" y="1.67" style="white-space:pre" fill="#222"></text><path class="E" d="M62.124 0h7v2.171h-7z"/><text x="62.124" y="1.67" class="h">0.01s</text><path class="E" d="M69.138 0h1v2.171h-1z"/><text x="69.138" y="1.67" style="white-space:pre" fill="#444"></text><path class="G" d="M70.14 0h3v2.171h-3z"/><text x="70.14" y="1.67" class="m"></text><path class="G" d="M73.146 0h1v2.171h-1z"/><text x="73.146" y="1.67" class="h"></text><path class="i" d="M74.148 0h9v2.171h-9z"/><text x="74.148" y="1.67" class="j">20:57 </text></symbol><symbol id="19"><path class="k" d="M0 0h1v2.171H0z"/><text y="1.67" class="l">❯</text><path class="k" d="M1.002 0h1v2.171h-1z"/><text x="1.002" y="1.67" class="j">❯</text><path class="k" d="M2.004 0h1v2.171h-1z"/><text x="2.004" y="1.67" class="m">❯</text><text x="3.006" y="1.67" class="n"></text><text x="4.008" y="1.67" class="o">exit</text></symbol><symbol id="a"><path fill="transparent" d="M0 0h83v19H0z"/></symbol><symbol id="b"><path fill="#6f7683" d="M0 0h1.102v2.171H0z"/></symbol></defs><path class="a" d="M0 0h83v41.249H0z"/><g style="animation-duration:15.088908s;animation-iteration-count:infinite;animation-name:J;animation-timing-function:steps(1,end)"><svg width="2988"><svg><use xlink:href="#a"/><use xlink:href="#b" x="-.004"/></svg><svg x="83"><use xlink:href="#a"/><use xlink:href="#b" x="-.004"/></svg><svg x="166"><use xlink:href="#a"/><use xlink:href="#b" x="-.004"/></svg><svg x="249"><use xlink:href="#a"/><use xlink:href="#b" x="-.004"/></svg><svg x="332"><use xlink:href="#a"/><use xlink:href="#b" x="-.004"/></svg><svg x="415"><use xlink:href="#a"/><use xlink:href="#b" x="-.004"/></svg><svg x="498"><use xlink:href="#a"/><use xlink:href="#b" x="3.996" y="2.146"/><use xlink:href="#1"/><use xlink:href="#2" y="2.171"/></svg><svg x="581"><use xlink:href="#a"/><use xlink:href="#b" x="3.996" y="2.146"/><use xlink:href="#1"/><use xlink:href="#2" y="2.171"/></svg><svg x="664"><use xlink:href="#a"/><use xlink:href="#b" x="4.996" y="2.146"/><use xlink:href="#1"/><path class="k" d="M0 2.171h1v2.171H0z"/><text y="3.841" class="l">❯</text><path class="k" d="M1.002 2.171h1v2.171h-1z"/><text x="1.002" y="3.841" class="j">❯</text><path class="k" d="M2.004 2.171h1v2.171h-1z"/><text x="2.004" y="3.841" class="m">❯</text><text x="3.006" y="3.841" class="n"></text><text x="4.008" y="3.841" class="o">c</text><text x="5.01" y="3.841" class="p">at</text><text x="8.016" y="3.841" class="p">contact.txt</text></svg><svg x="747"><use xlink:href="#a"/><use xlink:href="#b" x="5.996" y="2.146"/><use xlink:href="#1"/><path class="k" d="M0 2.171h1v2.171H0z"/><text y="3.841" class="l">❯</text><path class="k" d="M1.002 2.171h1v2.171h-1z"/><text x="1.002" y="3.841" class="j">❯</text><path class="k" d="M2.004 2.171h1v2.171h-1z"/><text x="2.004" y="3.841" class="m">❯</text><text x="3.006" y="3.841" class="n"></text><text x="4.008" y="3.841" class="o">ca</text><text x="6.012" y="3.841" class="p">t</text><text x="8.016" y="3.841" class="p">contact.txt</text></svg><svg x="830"><use xlink:href="#a"/><use xlink:href="#b" x="6.996" y="2.146"/><use xlink:href="#1"/><use xlink:href="#3" y="2.171"/></svg><svg x="913"><use xlink:href="#a"/><use xlink:href="#b" x="7.996" y="2.146"/><use xlink:href="#1"/><use xlink:href="#3" y="2.171"/></svg><svg x="996"><use xlink:href="#a"/><use xlink:href="#b" x="8.996" y="2.146"/><use xlink:href="#1"/><path class="k" d="M0 2.171h1v2.171H0z"/><text y="3.841" class="l">❯</text><path class="k" d="M1.002 2.171h1v2.171h-1z"/><text x="1.002" y="3.841" class="j">❯</text><path class="k" d="M2.004 2.171h1v2.171h-1z"/><text x="2.004" y="3.841" class="m">❯</text><text x="3.006" y="3.841" class="n"></text><text x="4.008" y="3.841" class="o">cat</text><text x="8.016" y="3.841" class="o">c</text><text x="9.018" y="3.841" class="p">ontact.txt</text></svg><svg x="1079"><use xlink:href="#a"/><use xlink:href="#b" x="18.996" y="2.146"/><use xlink:href="#1"/><use xlink:href="#4" y="2.171"/></svg><svg x="1162"><use xlink:href="#a"/><use xlink:href="#b" x="-.004" y="4.317"/><use xlink:href="#1"/><use xlink:href="#4" y="2.171"/></svg><svg x="1245"><use xlink:href="#a"/><use xlink:href="#b" x="-.004" y="4.317"/><use xlink:href="#1"/><use xlink:href="#4" y="2.171"/></svg><svg x="1328"><use xlink:href="#a"/><use xlink:href="#b" x="26.996" y="6.488"/><use xlink:href="#1"/><use xlink:href="#4" y="2.171"/><use xlink:href="#5" y="4.342"/><text x="20.04" y="8.183" class="s">▒</text><text x="21.042" y="8.183" class="t">▒███</text></svg><svg x="1411"><use xlink:href="#a"/><use xlink:href="#b" x="51.996" y="8.659"/><use xlink:href="#1"/><use xlink:href="#4" y="2.171"/><use xlink:href="#5" y="4.342"/><use xlink:href="#6" y="6.513"/><text x="18.036" y="10.354" class="t">███████</text><text x="27.054" y="10.354" class="t">██</text><text x="29.058" y="10.354" class="v">█</text><text x="30.06" y="10.354" class="w">██</text><text x="33.066" y="10.354" class="w">████</text><text x="38.076" y="10.354" class="w">██</text><text x="40.08" y="10.354" class="x">███</text><text x="44.088" y="10.354" class="x">████</text><text x="49.098" y="10.354" class="y">█</text><text x="50.1" y="10.354" class="u">██</text></svg><svg x="1494"><use xlink:href="#a"/><use xlink:href="#b" x="8.996" y="13.001"/><use xlink:href="#1"/><use xlink:href="#4" y="2.171"/><use xlink:href="#5" y="4.342"/><use xlink:href="#6" y="6.513"/><use xlink:href="#7" y="8.684"/><use xlink:href="#8" y="10.855"/></svg><svg x="1577"><use xlink:href="#a"/><use xlink:href="#b" x="29.996" y="15.172"/><use xlink:href="#1"/><use xlink:href="#4" y="2.171"/><use xlink:href="#5" y="4.342"/><use xlink:href="#6" y="6.513"/><use xlink:href="#7" y="8.684"/><use xlink:href="#8" y="10.855"/><use xlink:href="#9" y="13.026"/><text x="16.032" y="16.867" class="t">▒███</text><text x="21.042" y="16.867" class="w">▒███</text><text x="27.054" y="16.867" class="w">▒██</text></svg><svg x="1660"><use xlink:href="#a"/><use xlink:href="#b" x="49.996" y="17.343"/><use xlink:href="#1"/><use xlink:href="#4" y="2.171"/><use xlink:href="#5" y="4.342"/><use xlink:href="#6" y="6.513"/><use xlink:href="#7" y="8.684"/><use xlink:href="#8" y="10.855"/><use xlink:href="#9" y="13.026"/><use xlink:href="#10" y="15.197"/><text x="16.032" y="19.038" class="t">▒</text><text x="17.034" y="19.038" class="v">▒</text><text x="18.036" y="19.038" class="w">████████</text><text x="27.054" y="19.038" class="w">▒</text><text x="28.056" y="19.038" class="x">▒███████</text><text x="38.076" y="19.038" class="u">▒▒████████</text><text x="49.098" y="19.038" class="z">█</text></svg><svg x="1743"><use xlink:href="#a"/><use xlink:href="#b" x="4.996" y="21.685"/><use xlink:href="#1"/><use xlink:href="#4" y="2.171"/><use xlink:href="#5" y="4.342"/><use xlink:href="#6" y="6.513"/><use xlink:href="#7" y="8.684"/><use xlink:href="#8" y="10.855"/><use xlink:href="#9" y="13.026"/><use xlink:href="#10" y="15.197"/><use xlink:href="#11" y="17.368"/><use xlink:href="#12" y="19.539"/></svg><svg x="1826"><use xlink:href="#a"/><use xlink:href="#b" x="23.996" y="26.027"/><use xlink:href="#1"/><use xlink:href="#4" y="2.171"/><use xlink:href="#5" y="4.342"/><use xlink:href="#6" y="6.513"/><use xlink:href="#7" y="8.684"/><use xlink:href="#8" y="10.855"/><use xlink:href="#9" y="13.026"/><use xlink:href="#10" y="15.197"/><use xlink:href="#11" y="17.368"/><use xlink:href="#12" y="19.539"/><use xlink:href="#13" y="21.71"/><use xlink:href="#14" y="23.881"/></svg><svg x="1909"><use xlink:href="#a"/><use xlink:href="#b" x="-.004" y="39.053"/><use xlink:href="#1"/><use xlink:href="#4" y="2.171"/><use xlink:href="#5" y="4.342"/><use xlink:href="#6" y="6.513"/><use xlink:href="#7" y="8.684"/><use xlink:href="#8" y="10.855"/><use xlink:href="#9" y="13.026"/><use xlink:href="#10" y="15.197"/><use xlink:href="#11" y="17.368"/><use xlink:href="#12" y="19.539"/><use xlink:href="#13" y="21.71"/><use xlink:href="#14" y="23.881"/><use xlink:href="#15" y="26.052"/><use xlink:href="#16" y="32.565"/><use xlink:href="#17" y="34.736"/></svg><svg x="1992"><use xlink:href="#a"/><use xlink:href="#b" x="-.004" y="39.053"/><use xlink:href="#1"/><use xlink:href="#4" y="2.171"/><use xlink:href="#5" y="4.342"/><use xlink:href="#6" y="6.513"/><use xlink:href="#7" y="8.684"/><use xlink:href="#8" y="10.855"/><use xlink:href="#9" y="13.026"/><use xlink:href="#10" y="15.197"/><use xlink:href="#11" y="17.368"/><use xlink:href="#12" y="19.539"/><use xlink:href="#13" y="21.71"/><use xlink:href="#14" y="23.881"/><use xlink:href="#15" y="26.052"/><use xlink:href="#16" y="32.565"/><use xlink:href="#17" y="34.736"/></svg><svg x="2075"><use xlink:href="#a"/><use xlink:href="#b" x="-.004" y="39.053"/><use xlink:href="#1"/><use xlink:href="#4" y="2.171"/><use xlink:href="#5" y="4.342"/><use xlink:href="#6" y="6.513"/><use xlink:href="#7" y="8.684"/><use xlink:href="#8" y="10.855"/><use xlink:href="#9" y="13.026"/><use xlink:href="#10" y="15.197"/><use xlink:href="#11" y="17.368"/><use xlink:href="#12" y="19.539"/><use xlink:href="#13" y="21.71"/><use xlink:href="#14" y="23.881"/><use xlink:href="#15" y="26.052"/><use xlink:href="#16" y="32.565"/><use xlink:href="#17" y="34.736"/></svg><svg x="2158"><use xlink:href="#a"/><use xlink:href="#b" x="-.004" y="39.053"/><use xlink:href="#1"/><use xlink:href="#4" y="2.171"/><use xlink:href="#5" y="4.342"/><use xlink:href="#6" y="6.513"/><use xlink:href="#7" y="8.684"/><use xlink:href="#8" y="10.855"/><use xlink:href="#9" y="13.026"/><use xlink:href="#10" y="15.197"/><use xlink:href="#11" y="17.368"/><use xlink:href="#12" y="19.539"/><use xlink:href="#13" y="21.71"/><use xlink:href="#14" y="23.881"/><use xlink:href="#15" y="26.052"/><use xlink:href="#16" y="32.565"/><use xlink:href="#17" y="34.736"/></svg><svg x="2241"><use xlink:href="#a"/><use xlink:href="#b" x="3.996" y="39.053"/><use xlink:href="#4"/><use xlink:href="#5" y="2.171"/><use xlink:href="#6" y="4.342"/><use xlink:href="#7" y="6.513"/><use xlink:href="#8" y="8.684"/><use xlink:href="#9" y="10.855"/><use xlink:href="#10" y="13.026"/><use xlink:href="#11" y="15.197"/><use xlink:href="#12" y="17.368"/><use xlink:href="#13" y="19.539"/><use xlink:href="#14" y="21.71"/><use xlink:href="#15" y="23.881"/><use xlink:href="#16" y="30.394"/><use xlink:href="#17" y="32.565"/><use xlink:href="#18" y="36.907"/><use xlink:href="#2" y="39.078"/></svg><svg x="2324"><use xlink:href="#a"/><use xlink:href="#b" x="3.996" y="39.053"/><use xlink:href="#4"/><use xlink:href="#5" y="2.171"/><use xlink:href="#6" y="4.342"/><use xlink:href="#7" y="6.513"/><use xlink:href="#8" y="8.684"/><use xlink:href="#9" y="10.855"/><use xlink:href="#10" y="13.026"/><use xlink:href="#11" y="15.197"/><use xlink:href="#12" y="17.368"/><use xlink:href="#13" y="19.539"/><use xlink:href="#14" y="21.71"/><use xlink:href="#15" y="23.881"/><use xlink:href="#16" y="30.394"/><use xlink:href="#17" y="32.565"/><use xlink:href="#18" y="36.907"/><use xlink:href="#2" y="39.078"/></svg><svg x="2407"><use xlink:href="#a"/><use xlink:href="#b" x="4.996" y="39.053"/><use xlink:href="#4"/><use xlink:href="#5" y="2.171"/><use xlink:href="#6" y="4.342"/><use xlink:href="#7" y="6.513"/><use xlink:href="#8" y="8.684"/><use xlink:href="#9" y="10.855"/><use xlink:href="#10" y="13.026"/><use xlink:href="#11" y="15.197"/><use xlink:href="#12" y="17.368"/><use xlink:href="#13" y="19.539"/><use xlink:href="#14" y="21.71"/><use xlink:href="#15" y="23.881"/><use xlink:href="#16" y="30.394"/><use xlink:href="#17" y="32.565"/><use xlink:href="#18" y="36.907"/><path class="k" d="M0 39.078h1v2.171H0z"/><text y="40.748" class="l">❯</text><path class="k" d="M1.002 39.078h1v2.171h-1z"/><text x="1.002" y="40.748" class="j">❯</text><path class="k" d="M2.004 39.078h1v2.171h-1z"/><text x="2.004" y="40.748" class="m">❯</text><text x="3.006" y="40.748" class="n"></text><text x="4.008" y="40.748" class="o">e</text><text x="5.01" y="40.748" class="p">xit</text></svg><svg x="2490"><use xlink:href="#a"/><use xlink:href="#b" x="5.996" y="39.053"/><use xlink:href="#4"/><use xlink:href="#5" y="2.171"/><use xlink:href="#6" y="4.342"/><use xlink:href="#7" y="6.513"/><use xlink:href="#8" y="8.684"/><use xlink:href="#9" y="10.855"/><use xlink:href="#10" y="13.026"/><use xlink:href="#11" y="15.197"/><use xlink:href="#12" y="17.368"/><use xlink:href="#13" y="19.539"/><use xlink:href="#14" y="21.71"/><use xlink:href="#15" y="23.881"/><use xlink:href="#16" y="30.394"/><use xlink:href="#17" y="32.565"/><use xlink:href="#18" y="36.907"/><path class="k" d="M0 39.078h1v2.171H0z"/><text y="40.748" class="l">❯</text><path class="k" d="M1.002 39.078h1v2.171h-1z"/><text x="1.002" y="40.748" class="j">❯</text><path class="k" d="M2.004 39.078h1v2.171h-1z"/><text x="2.004" y="40.748" class="m">❯</text><text x="3.006" y="40.748" class="n"></text><text x="4.008" y="40.748" class="o">ex</text><text x="6.012" y="40.748" class="p">it</text></svg><svg x="2573"><use xlink:href="#a"/><use xlink:href="#b" x="6.996" y="39.053"/><use xlink:href="#4"/><use xlink:href="#5" y="2.171"/><use xlink:href="#6" y="4.342"/><use xlink:href="#7" y="6.513"/><use xlink:href="#8" y="8.684"/><use xlink:href="#9" y="10.855"/><use xlink:href="#10" y="13.026"/><use xlink:href="#11" y="15.197"/><use xlink:href="#12" y="17.368"/><use xlink:href="#13" y="19.539"/><use xlink:href="#14" y="21.71"/><use xlink:href="#15" y="23.881"/><use xlink:href="#16" y="30.394"/><use xlink:href="#17" y="32.565"/><use xlink:href="#18" y="36.907"/><path class="k" d="M0 39.078h1v2.171H0z"/><text y="40.748" class="l">❯</text><path class="k" d="M1.002 39.078h1v2.171h-1z"/><text x="1.002" y="40.748" class="j">❯</text><path class="k" d="M2.004 39.078h1v2.171h-1z"/><text x="2.004" y="40.748" class="m">❯</text><text x="3.006" y="40.748" class="n"></text><text x="4.008" y="40.748" class="o">exi</text><text x="7.014" y="40.748" class="p">t</text></svg><svg x="2656"><use xlink:href="#a"/><use xlink:href="#b" x="7.996" y="39.053"/><use xlink:href="#4"/><use xlink:href="#5" y="2.171"/><use xlink:href="#6" y="4.342"/><use xlink:href="#7" y="6.513"/><use xlink:href="#8" y="8.684"/><use xlink:href="#9" y="10.855"/><use xlink:href="#10" y="13.026"/><use xlink:href="#11" y="15.197"/><use xlink:href="#12" y="17.368"/><use xlink:href="#13" y="19.539"/><use xlink:href="#14" y="21.71"/><use xlink:href="#15" y="23.881"/><use xlink:href="#16" y="30.394"/><use xlink:href="#17" y="32.565"/><use xlink:href="#18" y="36.907"/><use xlink:href="#19" y="39.078"/></svg><svg x="2739"><use xlink:href="#a"/><use xlink:href="#b" x="-.004" y="39.053"/><use xlink:href="#5"/><use xlink:href="#6" y="2.171"/><use xlink:href="#7" y="4.342"/><use xlink:href="#8" y="6.513"/><use xlink:href="#9" y="8.684"/><use xlink:href="#10" y="10.855"/><use xlink:href="#11" y="13.026"/><use xlink:href="#12" y="15.197"/><use xlink:href="#13" y="17.368"/><use xlink:href="#14" y="19.539"/><use xlink:href="#15" y="21.71"/><use xlink:href="#16" y="28.223"/><use xlink:href="#17" y="30.394"/><use xlink:href="#18" y="34.736"/><use xlink:href="#19" y="36.907"/></svg><svg x="2822"><use xlink:href="#a"/><use xlink:href="#b" x="-.004" y="39.053"/><use xlink:href="#5"/><use xlink:href="#6" y="2.171"/><use xlink:href="#7" y="4.342"/><use xlink:href="#8" y="6.513"/><use xlink:href="#9" y="8.684"/><use xlink:href="#10" y="10.855"/><use xlink:href="#11" y="13.026"/><use xlink:href="#12" y="15.197"/><use xlink:href="#13" y="17.368"/><use xlink:href="#14" y="19.539"/><use xlink:href="#15" y="21.71"/><use xlink:href="#16" y="28.223"/><use xlink:href="#17" y="30.394"/><use xlink:href="#18" y="34.736"/><use xlink:href="#19" y="36.907"/></svg><svg x="2905"><use xlink:href="#a"/><use xlink:href="#b" x="-.004" y="39.053"/><use xlink:href="#6"/><use xlink:href="#7" y="2.171"/><use xlink:href="#8" y="4.342"/><use xlink:href="#9" y="6.513"/><use xlink:href="#10" y="8.684"/><use xlink:href="#11" y="10.855"/><use xlink:href="#12" y="13.026"/><use xlink:href="#13" y="15.197"/><use xlink:href="#14" y="17.368"/><use xlink:href="#15" y="19.539"/><use xlink:href="#16" y="26.052"/><use xlink:href="#17" y="28.223"/><use xlink:href="#18" y="32.565"/><use xlink:href="#19" y="34.736"/></svg></svg></g></g></svg></svg>